<?xml version="1.0" encoding="UTF-8"?>
<svg xmlns="http://www.w3.org/2000/svg" viewBox="0 0 920 700" font-family="Arial, sans-serif">

  <!-- Background -->
  <rect width="920" height="700" fill="#f8f8f8"/>
  <rect x="4" y="4" width="912" height="692" fill="none" stroke="#bbb" stroke-width="1"/>

  <!-- ===== TITLE BLOCK ===== -->
  <rect x="4" y="4" width="912" height="56" fill="#1a1a2e" stroke="#bbb" stroke-width="1"/>
  <text x="460" y="26" text-anchor="middle" font-size="15" font-weight="bold" fill="white">PHOTOBOOTH OVAL — DIBUJO DE REFERENCIA</text>
  <text x="460" y="44" text-anchor="middle" font-size="9.5" fill="#aaa">Escala aprox. 1:10 | Medidas en centímetros | Referencia basada en modelos comerciales (Simple Booth HALO, 360SpinBooths OP1)</text>

  <!-- ===== LEGEND BOX ===== -->
  <rect x="660" y="68" width="256" height="320" rx="4" fill="white" stroke="#ccc" stroke-width="1"/>
  <rect x="660" y="68" width="256" height="22" rx="4" fill="#2c3e50"/>
  <text x="788" y="83" text-anchor="middle" font-size="11" font-weight="bold" fill="white">TABLA DE MEDIDAS</text>

  <!-- Legend rows -->
  <rect x="660" y="90" width="256" height="16" fill="#ecf0f1"/>
  <text x="668" y="102" font-size="9" fill="#555">Componente</text>
  <text x="820" y="102" font-size="9" fill="#555">Medida Aprox.</text>

  <text x="668" y="118" font-size="9" fill="#e74c3c">● Alto total</text>
  <text x="820" y="118" font-size="9" fill="#333">165 cm</text>
  <line x1="660" y1="122" x2="916" y2="122" stroke="#eee" stroke-width="0.5"/>

  <text x="668" y="136" font-size="9" fill="#2980b9">● Enclosure oval — ancho</text>
  <text x="820" y="136" font-size="9" fill="#333">46 cm</text>
  <line x1="660" y1="140" x2="916" y2="140" stroke="#eee" stroke-width="0.5"/>

  <text x="668" y="154" font-size="9" fill="#2980b9">● Enclosure oval — alto</text>
  <text x="820" y="154" font-size="9" fill="#333">56 cm</text>
  <line x1="660" y1="158" x2="916" y2="158" stroke="#eee" stroke-width="0.5"/>

  <text x="668" y="172" font-size="9" fill="#2980b9">● Enclosure — profundidad</text>
  <text x="820" y="172" font-size="9" fill="#333">12 cm</text>
  <line x1="660" y1="176" x2="916" y2="176" stroke="#eee" stroke-width="0.5"/>

  <text x="668" y="190" font-size="9" fill="#27ae60">● Columna — diámetro</text>
  <text x="820" y="190" font-size="9" fill="#333">8 cm</text>
  <line x1="660" y1="194" x2="916" y2="194" stroke="#eee" stroke-width="0.5"/>

  <text x="668" y="208" font-size="9" fill="#27ae60">● Columna — alto</text>
  <text x="820" y="208" font-size="9" fill="#333">100 cm</text>
  <line x1="660" y1="212" x2="916" y2="212" stroke="#eee" stroke-width="0.5"/>

  <text x="668" y="226" font-size="9" fill="#8e44ad">● Base — ancho × prof.</text>
  <text x="820" y="226" font-size="9" fill="#333">35 × 35 cm</text>
  <line x1="660" y1="230" x2="916" y2="230" stroke="#eee" stroke-width="0.5"/>

  <text x="668" y="244" font-size="9" fill="#8e44ad">● Base — alto</text>
  <text x="820" y="244" font-size="9" fill="#333">8 cm</text>
  <line x1="660" y1="248" x2="916" y2="248" stroke="#eee" stroke-width="0.5"/>

  <text x="668" y="262" font-size="9" fill="#e67e22">● iPad Pro 12.9" ancho</text>
  <text x="820" y="262" font-size="9" fill="#333">21.5 cm</text>
  <line x1="660" y1="266" x2="916" y2="266" stroke="#eee" stroke-width="0.5"/>

  <text x="668" y="280" font-size="9" fill="#e67e22">● iPad Pro 12.9" alto</text>
  <text x="820" y="280" font-size="9" fill="#333">28 cm</text>
  <line x1="660" y1="284" x2="916" y2="284" stroke="#eee" stroke-width="0.5"/>

  <text x="668" y="298" font-size="9" fill="#f1c40f">● Ring LED — espesor</text>
  <text x="820" y="298" font-size="9" fill="#333">5 cm (en marco)</text>
  <line x1="660" y1="302" x2="916" y2="302" stroke="#eee" stroke-width="0.5"/>

  <text x="668" y="316" font-size="9" fill="#555">● Lente cámara — diám.</text>
  <text x="820" y="316" font-size="9" fill="#333">~5 cm</text>
  <line x1="660" y1="320" x2="916" y2="320" stroke="#eee" stroke-width="0.5"/>

  <text x="668" y="334" font-size="9" fill="#555">● Grosor material sugerido</text>
  <text x="820" y="334" font-size="9" fill="#333">18 mm MDF</text>
  <line x1="660" y1="338" x2="916" y2="338" stroke="#eee" stroke-width="0.5"/>

  <text x="668" y="352" font-size="9" fill="#555">● LED strip</text>
  <text x="820" y="352" font-size="9" fill="#333">5050 12V blanco cálido</text>
  <line x1="660" y1="356" x2="916" y2="356" stroke="#eee" stroke-width="0.5"/>

  <text x="668" y="370" font-size="9" fill="#555">● Columna material</text>
  <text x="820" y="370" font-size="9" fill="#333">Tubo acero Ø80mm</text>
  <line x1="660" y1="374" x2="916" y2="374" stroke="#eee" stroke-width="0.5"/>

  <text x="668" y="388" font-size="9" fill="#555" font-weight="bold">NOTA: Ajustar según iPad/cámara real</text>

  <!-- ===== FRONT VIEW ===== -->
  <text x="220" y="80" text-anchor="middle" font-size="12" font-weight="bold" fill="#2c3e50">VISTA FRONTAL</text>

  <!-- BASE -->
  <rect x="176" y="552" width="88" height="18" rx="3" fill="#555" stroke="#333" stroke-width="1.5"/>

  <!-- COLUMN -->
  <rect x="210" y="304" width="20" height="248" fill="#888" stroke="#555" stroke-width="1.5"/>
  <!-- column shine -->
  <rect x="212" y="304" width="4" height="248" fill="white" opacity="0.18"/>

  <!-- OVAL OUTER (enclosure frame + ring light) -->
  <ellipse cx="220" cy="232" rx="58" ry="72" fill="#1c1c1c" stroke="#111" stroke-width="2.5"/>

  <!-- LED ring glow strip -->
  <ellipse cx="220" cy="232" rx="50" ry="64" fill="none" stroke="#ffe066" stroke-width="4" opacity="0.9"/>

  <!-- OVAL INNER (screen area) -->
  <ellipse cx="220" cy="232" rx="44" ry="58" fill="#242424"/>

  <!-- CAMERA LENS -->
  <circle cx="220" cy="174" r="9" fill="#333" stroke="#1a1a1a" stroke-width="1.5"/>
  <circle cx="220" cy="174" r="6.5" fill="#1a1a2e" stroke="#444" stroke-width="0.5"/>
  <circle cx="220" cy="174" r="4" fill="#0d0d18"/>
  <circle cx="217" cy="171" r="1.5" fill="white" opacity="0.65"/>

  <!-- IPAD -->
  <rect x="193" y="193" width="54" height="70" rx="4" fill="#1b3a5e" stroke="#3a78c9" stroke-width="1.5"/>
  <rect x="195" y="195" width="50" height="66" rx="3" fill="#1e4080"/>
  <!-- screen mock content -->
  <rect x="199" y="200" width="42" height="24" rx="2" fill="#2a5cb8" opacity="0.85"/>
  <rect x="199" y="228" width="42" height="11" rx="1" fill="#2a5cb8" opacity="0.6"/>
  <rect x="199" y="243" width="42" height="11" rx="1" fill="#2a5cb8" opacity="0.6"/>
  <!-- home bar -->
  <rect x="211" y="258" width="18" height="2.5" rx="1.2" fill="#5a9af5" opacity="0.7"/>

  <!-- ===== DIMENSION LINES — FRONT VIEW ===== -->

  <!-- TOTAL HEIGHT (red) -->
  <line x1="98" y1="160" x2="98" y2="570" stroke="#e74c3c" stroke-width="1" stroke-dasharray="4,3"/>
  <line x1="92" y1="160" x2="104" y2="160" stroke="#e74c3c" stroke-width="1.5"/>
  <line x1="92" y1="570" x2="104" y2="570" stroke="#e74c3c" stroke-width="1.5"/>
  <text x="76" y="370" text-anchor="middle" font-size="10" fill="#e74c3c" transform="rotate(-90,76,370)">~165 cm TOTAL</text>

  <!-- OVAL WIDTH (blue) -->
  <line x1="162" y1="280" x2="278" y2="280" stroke="#2980b9" stroke-width="1" stroke-dasharray="3,3"/>
  <line x1="162" y1="274" x2="162" y2="286" stroke="#2980b9" stroke-width="1.5"/>
  <line x1="278" y1="274" x2="278" y2="286" stroke="#2980b9" stroke-width="1.5"/>
  <text x="220" y="273" text-anchor="middle" font-size="10" fill="#2980b9">~46 cm</text>

  <!-- OVAL HEIGHT (blue) -->
  <line x1="296" y1="160" x2="296" y2="304" stroke="#2980b9" stroke-width="1" stroke-dasharray="3,3"/>
  <line x1="290" y1="160" x2="302" y2="160" stroke="#2980b9" stroke-width="1.5"/>
  <line x1="290" y1="304" x2="302" y2="304" stroke="#2980b9" stroke-width="1.5"/>
  <text x="308" y="236" text-anchor="start" font-size="10" fill="#2980b9">~56 cm</text>

  <!-- COLUMN HEIGHT (green) -->
  <line x1="296" y1="304" x2="296" y2="552" stroke="#27ae60" stroke-width="1" stroke-dasharray="3,3"/>
  <line x1="290" y1="552" x2="302" y2="552" stroke="#27ae60" stroke-width="1.5"/>
  <text x="308" y="432" text-anchor="start" font-size="10" fill="#27ae60">~100 cm</text>

  <!-- COLUMN WIDTH (green) -->
  <line x1="210" y1="345" x2="230" y2="345" stroke="#27ae60" stroke-width="1" stroke-dasharray="3,3"/>
  <line x1="210" y1="340" x2="210" y2="350" stroke="#27ae60" stroke-width="1.5"/>
  <line x1="230" y1="340" x2="230" y2="350" stroke="#27ae60" stroke-width="1.5"/>
  <text x="238" y="349" text-anchor="start" font-size="9" fill="#27ae60">~8 cm</text>

  <!-- BASE WIDTH (purple) -->
  <line x1="176" y1="588" x2="264" y2="588" stroke="#8e44ad" stroke-width="1" stroke-dasharray="3,3"/>
  <line x1="176" y1="582" x2="176" y2="594" stroke="#8e44ad" stroke-width="1.5"/>
  <line x1="264" y1="582" x2="264" y2="594" stroke="#8e44ad" stroke-width="1.5"/>
  <text x="220" y="604" text-anchor="middle" font-size="9" fill="#8e44ad">~35 cm</text>

  <!-- IPAD WIDTH (orange) -->
  <line x1="193" y1="278" x2="247" y2="278" stroke="#e67e22" stroke-width="1" stroke-dasharray="3,3"/>
  <line x1="193" y1="273" x2="193" y2="283" stroke="#e67e22" stroke-width="1.5"/>
  <line x1="247" y1="273" x2="247" y2="283" stroke="#e67e22" stroke-width="1.5"/>
  <text x="220" y="295" text-anchor="middle" font-size="9" fill="#e67e22">~21.5 cm</text>

  <!-- IPAD HEIGHT (orange) -->
  <line x1="152" y1="193" x2="152" y2="263" stroke="#e67e22" stroke-width="1" stroke-dasharray="3,3"/>
  <line x1="146" y1="193" x2="158" y2="193" stroke="#e67e22" stroke-width="1.5"/>
  <line x1="146" y1="263" x2="158" y2="263" stroke="#e67e22" stroke-width="1.5"/>
  <text x="140" y="231" text-anchor="middle" font-size="9" fill="#e67e22" transform="rotate(-90,140,231)">~28 cm</text>

  <!-- CALLOUT: Ring LED -->
  <line x1="266" y1="185" x2="330" y2="162" stroke="#f1c40f" stroke-width="0.8"/>
  <circle cx="266" cy="185" r="2" fill="#f1c40f"/>
  <text x="334" y="159" font-size="9" fill="#c4a000">Ring LED (en marco oval)</text>

  <!-- CALLOUT: Camera -->
  <line x1="229" y1="167" x2="330" y2="143" stroke="#aaa" stroke-width="0.8"/>
  <circle cx="229" cy="167" r="2" fill="#aaa"/>
  <text x="334" y="140" font-size="9" fill="#777">Lente cámara Ø~5cm</text>

  <!-- CALLOUT: iPad -->
  <line x1="247" y1="225" x2="330" y2="215" stroke="#3a78c9" stroke-width="0.8"/>
  <circle cx="247" cy="225" r="2" fill="#3a78c9"/>
  <text x="334" y="212" font-size="9" fill="#2a68b9">iPad (pantalla táctil)</text>

  <!-- ===== SIDE VIEW ===== -->
  <text x="530" y="80" text-anchor="middle" font-size="12" font-weight="bold" fill="#2c3e50">VISTA LATERAL</text>

  <!-- BASE side -->
  <rect x="486" y="552" width="88" height="18" rx="3" fill="#555" stroke="#333" stroke-width="1.5"/>

  <!-- COLUMN side (same width as front — circular column) -->
  <rect x="519" y="304" width="20" height="248" fill="#888" stroke="#555" stroke-width="1.5"/>
  <rect x="521" y="304" width="4" height="248" fill="white" opacity="0.18"/>

  <!-- OVAL SIDE PROFILE (from side: appears as tall rounded-corner rectangle) -->
  <!-- depth ~12cm = 30px, but showing 50px wide for legibility (noted) -->
  <rect x="505" y="160" width="50" height="144" rx="22" fill="#1c1c1c" stroke="#111" stroke-width="2.5"/>
  <!-- LED glow side -->
  <rect x="510" y="165" width="40" height="134" rx="17" fill="none" stroke="#ffe066" stroke-width="3.5" opacity="0.9"/>
  <!-- Inner area -->
  <rect x="515" y="170" width="30" height="124" rx="13" fill="#242424"/>

  <!-- Camera protrusion from side -->
  <ellipse cx="530" cy="178" rx="10" ry="7" fill="#333" stroke="#1a1a1a" stroke-width="1.5"/>
  <ellipse cx="530" cy="178" rx="6" ry="4" fill="#1a1a2e"/>

  <!-- iPad side (thin rectangle representing iPad thickness ~8mm) -->
  <rect x="520" y="196" width="8" height="70" rx="2" fill="#1b3a5e" stroke="#3a78c9" stroke-width="1"/>

  <!-- DEPTH DIMENSION (red) -->
  <line x1="450" y1="160" x2="450" y2="304" stroke="#e74c3c" stroke-width="1" stroke-dasharray="3,3"/>
  <line x1="444" y1="160" x2="456" y2="160" stroke="#e74c3c" stroke-width="1.5"/>
  <line x1="444" y1="304" x2="456" y2="304" stroke="#e74c3c" stroke-width="1.5"/>
  <text x="434" y="236" text-anchor="middle" font-size="10" fill="#e74c3c" transform="rotate(-90,434,236)">~56 cm alto</text>

  <!-- ENCLOSURE DEPTH annotation -->
  <line x1="505" y1="140" x2="555" y2="140" stroke="#2980b9" stroke-width="1" stroke-dasharray="3,3"/>
  <line x1="505" y1="134" x2="505" y2="146" stroke="#2980b9" stroke-width="1.5"/>
  <line x1="555" y1="134" x2="555" y2="146" stroke="#2980b9" stroke-width="1.5"/>
  <text x="530" y="132" text-anchor="middle" font-size="9" fill="#2980b9">~12 cm prof.</text>

  <!-- ===== SEPARATOR + CUT PATTERN INFO ===== -->
  <line x1="4" y1="630" x2="916" y2="630" stroke="#bbb" stroke-width="1"/>
  <rect x="4" y="630" width="912" height="66" fill="#2c3e50"/>

  <text x="460" y="648" text-anchor="middle" font-size="11" font-weight="bold" fill="white">PATRÓN DE CORTE — CNC / LASER</text>
  <text x="460" y="664" text-anchor="middle" font-size="9.5" fill="#aaa">Oval exterior: 46 × 56 cm | Marco (frame): 5 cm espesor | Recorte cámara: círculo Ø 5 cm (centrado arriba) | Recorte iPad: 21.5 × 28 cm (centrado interior)</text>
  <text x="460" y="680" text-anchor="middle" font-size="9" fill="#7f8c8d">Para exportar a DXF: abrir en Inkscape → Archivo → Guardar como → DXF R14 | Online: convertio.co/svg-dxf | cloudconvert.com/svg-to-dxf</text>

  <!-- Footer note -->
  <text x="908" y="695" text-anchor="end" font-size="7.5" fill="#95a5a6">Rev. 1.0 — Referencia aproximada. Ajustar medidas según componentes reales (iPad, cámara, ring light).</text>

</svg>
